ffmpeg started on 2016-12-07 at 12:34:42
Report written to "Output/x264/results/ffmpeg/sintelslow8000k.log"
Command line:
Tools/ffmpeg/ffmpeg -benchmark -y -i Input/y4m/sintel.y4m -c:v libx264 -preset slow -b:v 8000k -an Output/x264/encoded/sintelslow8000k.mkv
ffmpeg version N-82227-gdb23fde Copyright (c) 2000-2016 the FFmpeg developers
  built with gcc 5.4.0 (Ubuntu 5.4.0-6ubuntu1~16.04.2) 20160609
  configuration: --prefix=/home/jaroslav/ffmpeg_build --pkg-config-flags=--static --extra-cflags=-I/home/jaroslav/ffmpeg_build/include --extra-ldflags=-L/home/jaroslav/ffmpeg_build/lib --bindir=/home/jaroslav/bin --enable-gpl --enable-libass --enable-libfdk-aac --enable-libfreetype --enable-libmp3lame --enable-libopus --enable-libtheora --enable-libvorbis --enable-libvpx --enable-libx264 --enable-libx265 --enable-nvenc --enable-libmfx --enable-libxvid --enable-libgsm --enable-libopencore-amrnb --enable-version3 --enable-nonfree
  libavutil      55. 35.100 / 55. 35.100
  libavcodec     57. 66.101 / 57. 66.101
  libavformat    57. 57.100 / 57. 57.100
  libavdevice    57.  2.100 / 57.  2.100
  libavfilter     6. 66.100 /  6. 66.100
  libswscale      4.  3.100 /  4.  3.100
  libswresample   2.  4.100 /  2.  4.100
  libpostproc    54.  2.100 / 54.  2.100
Input #0, yuv4mpegpipe, from 'Input/y4m/sintel.y4m':
  Duration: 00:00:20.83, start: 0.000000, bitrate: 2057307 kb/s
    Stream #0:0: Video: rawvideo (I420 / 0x30323449), yuv420p(progressive), 4096x1744, SAR 1:1 DAR 256:109, 24 fps, 24 tbr, 24 tbn, 24 tbc
[libx264 @ 0x375a120] using SAR=1/1
[libx264 @ 0x375a120] using cpu capabilities: MMX2 SSE2Fast SSSE3 SSE4.2 AVX FMA3 AVX2 LZCNT BMI2
[libx264 @ 0x375a120] profile High, level 5.1
[libx264 @ 0x375a120] 264 - core 148 - H.264/MPEG-4 AVC codec - Copyleft 2003-2016 - http://www.videolan.org/x264.html - options: cabac=1 ref=5 deblock=1:0:0 analyse=0x3:0x113 me=hex subme=8 psy=1 psy_rd=1.00:0.00 mixed_ref=1 me_range=16 chroma_me=1 trellis=2 8x8dct=1 cqm=0 deadzone=21,11 fast_pskip=1 chroma_qp_offset=-2 threads=6 lookahead_threads=1 sliced_threads=0 nr=0 decimate=1 interlaced=0 bluray_compat=0 constrained_intra=0 bframes=3 b_pyramid=2 b_adapt=1 b_bias=0 direct=3 weightb=1 open_gop=0 weightp=2 keyint=250 keyint_min=24 scenecut=40 intra_refresh=0 rc_lookahead=50 rc=abr mbtree=1 bitrate=8000 ratetol=1.0 qcomp=0.60 qpmin=0 qpmax=69 qpstep=4 ip_ratio=1.40 aq=1:1.00
Output #0, matroska, to 'Output/x264/encoded/sintelslow8000k.mkv':
  Metadata:
    encoder         : Lavf57.57.100
    Stream #0:0: Video: h264 (libx264) (H264 / 0x34363248), yuv420p, 4096x1744 [SAR 1:1 DAR 256:109], q=-1--1, 8000 kb/s, 24 fps, 1k tbn, 24 tbc
    Metadata:
      encoder         : Lavc57.66.101 libx264
    Side data:
      cpb: bitrate max/min/avg: 0/0/8000000 buffer size: 0 vbv_delay: -1
Stream mapping:
  Stream #0:0 -> #0:0 (rawvideo (native) -> h264 (libx264))
Press [q] to stop, [?] for help
frame=    9 fps=0.0 q=0.0 size=       0kB time=00:00:00.00 bitrate=N/A speed=   0x    frame=   18 fps= 17 q=0.0 size=       0kB time=00:00:00.00 bitrate=N/A speed=   0x    frame=   27 fps= 17 q=0.0 size=       0kB time=00:00:00.00 bitrate=N/A speed=   0x    frame=   34 fps= 16 q=0.0 size=       0kB time=00:00:00.00 bitrate=N/A speed=   0x    frame=   43 fps= 16 q=0.0 size=       0kB time=00:00:00.00 bitrate=N/A speed=   0x    frame=   46 fps=7.3 q=0.0 size=       0kB time=00:00:00.00 bitrate=N/A speed=   0x    frame=   47 fps=4.9 q=0.0 size=       0kB time=00:00:00.00 bitrate=N/A speed=   0x    frame=   48 fps=3.9 q=0.0 size=       0kB time=00:00:00.00 bitrate=N/A speed=   0x    frame=   57 fps=3.7 q=0.0 size=       0kB time=00:00:00.00 bitrate=N/A speed=   0x    frame=   62 fps=3.8 q=26.0 size=       1kB time=-00:00:00.04 bitrate=N/A speed=N/A    frame=   63 fps=3.7 q=27.0 size=       1kB time=00:00:00.00 bitrate=5872.0kbits/s speed=5.93e-05x    frame=   66 fps=3.8 q=33.0 size=       1kB time=00:00:00.12 bitrate=  46.6kbits/s speed=0.00721x    frame=   67 fps=3.7 q=44.0 size=       1kB time=00:00:00.16 bitrate=  35.0kbits/s speed=0.00931x    frame=   71 fps=3.8 q=45.0 size=       1kB time=00:00:00.33 bitrate=  17.6kbits/s speed=0.0177x    frame=   75 fps=3.9 q=44.0 size=       1kB time=00:00:00.50 bitrate=  11.7kbits/s speed=0.0258x    frame=   78 fps=3.9 q=44.0 size=       1kB time=00:00:00.62 bitrate=   9.4kbits/s speed=0.0314x    frame=   82 fps=4.0 q=44.0 size=       1kB time=00:00:00.79 bitrate=   7.4kbits/s speed=0.0387x    frame=   85 fps=4.0 q=43.0 size=       1kB time=00:00:00.91 bitrate=   6.4kbits/s speed=0.0434x    frame=   90 fps=4.1 q=43.0 size=       1kB time=00:00:01.12 bitrate=   5.2kbits/s speed=0.0516x    frame=   93 fps=4.2 q=42.0 size=       1kB time=00:00:01.25 bitrate=   4.7kbits/s speed=0.0559x    frame=   97 fps=4.2 q=42.0 size=       1kB time=00:00:01.41 bitrate=   4.1kbits/s speed=0.0617x    frame=  100 fps=4.2 q=42.0 size=       1kB time=00:00:01.54 bitrate=   3.8kbits/s speed=0.0651x    frame=  104 fps=4.3 q=41.0 size=       1kB time=00:00:01.70 bitrate=   3.4kbits/s speed=0.0704x    frame=  108 fps=4.3 q=41.0 size=       1kB time=00:00:01.87 bitrate=   3.1kbits/s speed=0.0755x    frame=  111 fps=4.4 q=40.0 size=       1kB time=00:00:02.00 bitrate=   2.9kbits/s speed=0.0789x    frame=  114 fps=4.4 q=40.0 size=       1kB time=00:00:02.12 bitrate=   2.8kbits/s speed=0.0819x    frame=  116 fps=4.4 q=40.0 size=       1kB time=00:00:02.20 bitrate=   2.7kbits/s speed=0.0832x    frame=  119 fps=4.4 q=40.0 size=       1kB time=00:00:02.33 bitrate=   2.5kbits/s speed=0.0859x    frame=  122 fps=4.4 q=40.0 size=       1kB time=00:00:02.45 bitrate=   2.4kbits/s speed=0.0886x    frame=  125 fps=4.4 q=40.0 size=       1kB time=00:00:02.58 bitrate=   2.3kbits/s speed=0.091x    frame=  127 fps=4.4 q=40.0 size=       1kB time=00:00:02.66 bitrate=   2.2kbits/s speed=0.092x    frame=  130 fps=4.4 q=40.0 size=       1kB time=00:00:02.79 bitrate=   2.1kbits/s speed=0.0947x    frame=  133 fps=4.4 q=40.0 size=       1kB time=00:00:02.91 bitrate=   2.0kbits/s speed=0.0971x    frame=  135 fps=4.4 q=40.0 size=       1kB time=00:00:03.00 bitrate=   2.0kbits/s speed=0.0981x    frame=  139 fps=4.4 q=40.0 size=       1kB time=00:00:03.16 bitrate=   1.9kbits/s speed=0.101x    frame=  141 fps=4.4 q=39.0 size=       1kB time=00:00:03.25 bitrate=   1.8kbits/s speed=0.102x    frame=  144 fps=4.4 q=39.0 size=       1kB time=00:00:03.37 bitrate=   1.7kbits/s speed=0.104x    frame=  147 fps=4.4 q=39.0 size=       1kB time=00:00:03.50 bitrate=   1.7kbits/s speed=0.106x    frame=  150 fps=4.4 q=39.0 size=       1kB time=00:00:03.62 bitrate=   1.6kbits/s speed=0.107x    frame=  153 fps=4.4 q=39.0 size=       1kB time=00:00:03.75 bitrate=   1.6kbits/s speed=0.109x    frame=  157 fps=4.5 q=39.0 size=    4339kB time=00:00:03.91 bitrate=9071.9kbits/s speed=0.112x    frame=  162 fps=4.6 q=39.0 size=    4339kB time=00:00:04.12 bitrate=8614.5kbits/s speed=0.116x    frame=  163 fps=4.5 q=39.0 size=    4339kB time=00:00:04.16 bitrate=8527.7kbits/s speed=0.115x    frame=  169 fps=4.6 q=38.0 size=    4339kB time=00:00:04.41 bitrate=8045.2kbits/s speed=0.121x    frame=  172 fps=4.6 q=38.0 size=    4339kB time=00:00:04.54 bitrate=7823.8kbits/s speed=0.122x    frame=  177 fps=4.7 q=38.0 size=    4339kB time=00:00:04.75 bitrate=7481.3kbits/s speed=0.126x    frame=  180 fps=4.7 q=38.0 size=    4339kB time=00:00:04.87 bitrate=7289.5kbits/s speed=0.127x    frame=  182 fps=4.7 q=38.0 size=    4339kB time=00:00:04.95 bitrate=7167.5kbits/s speed=0.127x    frame=  186 fps=4.7 q=38.0 size=    4339kB time=00:00:05.12 bitrate=6934.0kbits/s speed=0.13x    frame=  187 fps=4.7 q=38.0 size=    4339kB time=00:00:05.16 bitrate=6877.6kbits/s speed=0.129x    frame=  191 fps=4.7 q=38.0 size=    4339kB time=00:00:05.33 bitrate=6663.6kbits/s speed=0.131x    frame=  194 fps=4.7 q=38.0 size=    4339kB time=00:00:05.45 bitrate=6511.0kbits/s speed=0.132x    frame=  197 fps=4.7 q=38.0 size=    4339kB time=00:00:05.58 bitrate=6365.3kbits/s speed=0.133x    frame=  201 fps=4.7 q=38.0 size=    4339kB time=00:00:05.75 bitrate=6180.4kbits/s speed=0.135x    frame=  204 fps=4.7 q=38.0 size=    4339kB time=00:00:05.87 bitrate=6048.9kbits/s speed=0.136x    frame=  207 fps=4.7 q=38.0 size=    4339kB time=00:00:06.00 bitrate=5922.9kbits/s speed=0.137x    frame=  211 fps=4.8 q=38.0 size=    4339kB time=00:00:06.16 bitrate=5762.6kbits/s speed=0.139x    frame=  213 fps=4.7 q=38.0 size=    4339kB time=00:00:06.25 bitrate=5686.1kbits/s speed=0.139x    frame=  220 fps=4.8 q=37.0 size=    6392kB time=00:00:06.54 bitrate=8002.7kbits/s speed=0.144x    frame=  222 fps=4.8 q=37.0 size=    6392kB time=00:00:06.62 bitrate=7902.5kbits/s speed=0.144x    frame=  224 fps=4.8 q=37.0 size=    6392kB time=00:00:06.70 bitrate=7804.7kbits/s speed=0.144x    frame=  229 fps=4.9 q=37.0 size=    6392kB time=00:00:06.91 bitrate=7568.9kbits/s speed=0.147x    frame=  231 fps=4.8 q=37.0 size=    6392kB time=00:00:07.00 bitrate=7479.2kbits/s speed=0.147x    frame=  235 fps=4.9 q=37.0 size=    6392kB time=00:00:07.16 bitrate=7304.9kbits/s speed=0.148x    frame=  237 fps=4.9 q=37.0 size=    6392kB time=00:00:07.25 bitrate=7221.3kbits/s speed=0.148x    frame=  241 fps=4.9 q=37.0 size=    6392kB time=00:00:07.41 bitrate=7058.7kbits/s speed=0.15x    frame=  248 fps=4.9 q=37.0 size=    7284kB time=00:00:07.70 bitrate=7739.9kbits/s speed=0.154x    frame=  250 fps=4.9 q=37.0 size=    7284kB time=00:00:07.79 bitrate=7656.5kbits/s speed=0.154x    frame=  256 fps=5.0 q=37.0 size=    7284kB time=00:00:08.04 bitrate=7418.5kbits/s speed=0.156x    frame=  259 fps=5.0 q=37.0 size=    7284kB time=00:00:08.16 bitrate=7305.0kbits/s speed=0.157x    frame=  262 fps=5.0 q=37.0 size=    7284kB time=00:00:08.29 bitrate=7194.9kbits/s speed=0.157x    frame=  266 fps=5.0 q=36.0 size=    7284kB time=00:00:08.45 bitrate=7053.7kbits/s speed=0.159x    frame=  269 fps=5.0 q=36.0 size=    7284kB time=00:00:08.58 bitrate=6951.0kbits/s speed=0.159x    frame=  274 fps=5.0 q=36.0 size=    7284kB time=00:00:08.79 bitrate=6785.8kbits/s speed=0.161x    frame=  277 fps=5.0 q=36.0 size=    7284kB time=00:00:08.91 bitrate=6690.7kbits/s speed=0.162x    frame=  282 fps=5.1 q=36.0 size=    7284kB time=00:00:09.12 bitrate=6538.2kbits/s speed=0.164x    frame=  285 fps=5.1 q=36.0 size=    7284kB time=00:00:09.25 bitrate=6449.8kbits/s speed=0.164x    frame=  292 fps=5.1 q=36.0 size=    7284kB time=00:00:09.54 bitrate=6252.5kbits/s speed=0.168x    frame=  294 fps=5.1 q=36.0 size=    7284kB time=00:00:09.62 bitrate=6198.5kbits/s speed=0.166x    frame=  300 fps=5.1 q=36.0 size=    7284kB time=00:00:09.87 bitrate=6041.6kbits/s speed=0.169x    frame=  302 fps=5.1 q=36.0 size=    7284kB time=00:00:09.95 bitrate=5991.3kbits/s speed=0.169x    frame=  307 fps=5.2 q=36.0 size=    7284kB time=00:00:10.16 bitrate=5868.1kbits/s speed=0.171x    frame=  311 fps=5.2 q=35.0 size=    7284kB time=00:00:10.33 bitrate=5773.9kbits/s speed=0.172x    frame=  315 fps=5.2 q=35.0 size=    7284kB time=00:00:10.50 bitrate=5682.1kbits/s speed=0.173x    frame=  320 fps=5.2 q=35.0 size=    7284kB time=00:00:10.70 bitrate=5571.7kbits/s speed=0.175x    frame=  322 fps=5.2 q=35.0 size=    7284kB time=00:00:10.79 bitrate=5528.3kbits/s speed=0.174x    frame=  329 fps=5.3 q=35.0 size=    9803kB time=00:00:11.08 bitrate=7244.9kbits/s speed=0.177x    frame=  336 fps=5.3 q=35.0 size=    9803kB time=00:00:11.37 bitrate=7059.0kbits/s speed=0.179x    frame=  341 fps=5.3 q=35.0 size=    9803kB time=00:00:11.58 bitrate=6932.2kbits/s speed=0.181x    frame=  344 fps=5.3 q=35.0 size=    9803kB time=00:00:11.70 bitrate=6858.2kbits/s speed=0.181x    frame=  349 fps=5.4 q=35.0 size=    9803kB time=00:00:11.91 bitrate=6737.9kbits/s speed=0.183x    frame=  355 fps=5.4 q=34.0 size=    9803kB time=00:00:12.16 bitrate=6599.5kbits/s speed=0.185x    frame=  360 fps=5.4 q=34.0 size=    9803kB time=00:00:12.37 bitrate=6488.6kbits/s speed=0.186x    frame=  368 fps=5.5 q=34.0 size=    9803kB time=00:00:12.70 bitrate=6318.6kbits/s speed=0.189x    frame=  376 fps=5.5 q=34.0 size=    9803kB time=00:00:13.04 bitrate=6156.8kbits/s speed=0.192x    frame=  384 fps=5.6 q=33.0 size=    9803kB time=00:00:13.37 bitrate=6003.5kbits/s speed=0.194x    frame=  392 fps=5.6 q=33.0 size=    9803kB time=00:00:13.70 bitrate=5857.7kbits/s speed=0.197x    frame=  398 fps=5.7 q=33.0 size=    9803kB time=00:00:13.95 bitrate=5752.7kbits/s speed=0.199x    frame=  404 fps=5.7 q=32.0 size=    9803kB time=00:00:14.20 bitrate=5651.5kbits/s speed= 0.2x    frame=  412 fps=5.7 q=32.0 size=    9803kB time=00:00:14.54 bitrate=5521.7kbits/s speed=0.202x    frame=  420 fps=5.8 q=32.0 size=    9803kB time=00:00:14.87 bitrate=5398.1kbits/s speed=0.205x    frame=  428 fps=5.8 q=32.0 size=   12251kB time=00:00:15.20 bitrate=6598.7kbits/s speed=0.206x    frame=  435 fps=5.8 q=32.0 size=   12251kB time=00:00:15.50 bitrate=6474.4kbits/s speed=0.208x    frame=  436 fps=5.8 q=32.0 size=   12251kB time=00:00:15.54 bitrate=6456.9kbits/s speed=0.207x    frame=  441 fps=5.8 q=31.0 size=   12251kB time=00:00:15.75 bitrate=6371.6kbits/s speed=0.208x    frame=  447 fps=5.9 q=31.0 size=   12251kB time=00:00:16.00 bitrate=6272.1kbits/s speed=0.21x    frame=  448 fps=5.8 q=31.0 size=   12251kB time=00:00:16.04 bitrate=6255.6kbits/s speed=0.209x    frame=  454 fps=5.9 q=31.0 size=   12251kB time=00:00:16.29 bitrate=6159.7kbits/s speed=0.211x    frame=  455 fps=5.8 q=31.0 size=   12251kB time=00:00:16.33 bitrate=6144.2kbits/s speed=0.21x    frame=  461 fps=5.8 q=31.0 size=   12251kB time=00:00:16.58 bitrate=6051.6kbits/s speed=0.21x    frame=  467 fps=5.8 q=31.0 size=   12251kB time=00:00:16.83 bitrate=5961.7kbits/s speed=0.21x    frame=  473 fps=5.9 q=31.0 size=   12251kB time=00:00:17.08 bitrate=5874.5kbits/s speed=0.212x    frame=  479 fps=5.9 q=32.0 size=   14441kB time=00:00:17.33 bitrate=6824.9kbits/s speed=0.213x    frame=  484 fps=5.9 q=31.0 size=   14441kB time=00:00:17.54 bitrate=6743.6kbits/s speed=0.214x    frame=  488 fps=5.9 q=31.0 size=   14441kB time=00:00:17.70 bitrate=6680.4kbits/s speed=0.214x    frame=  490 fps=5.9 q=32.0 size=   14441kB time=00:00:17.79 bitrate=6648.9kbits/s speed=0.213x    frame=  496 fps=5.9 q=32.0 size=   14441kB time=00:00:18.04 bitrate=6556.7kbits/s speed=0.214x    frame=  500 fps=5.5 q=-1.0 Lsize=   17645kB time=00:00:20.70 bitrate=6979.9kbits/s speed=0.228x    
video:17640kB audio:0kB subtitle:0kB other streams:0kB global headers:0kB muxing overhead: 0.027243%
bench: utime=288.688s
bench: maxrss=1820596kB
[libx264 @ 0x375a120] frame I:8     Avg QP:26.79  size:133150
[libx264 @ 0x375a120] frame P:269   Avg QP:31.84  size: 44513
[libx264 @ 0x375a120] frame B:223   Avg QP:30.77  size: 22528
[libx264 @ 0x375a120] consecutive B-frames: 37.0%  8.4%  6.6% 48.0%
[libx264 @ 0x375a120] mb I  I16..4: 37.1% 60.0%  2.9%
[libx264 @ 0x375a120] mb P  I16..4: 24.2% 15.2%  0.2%  P16..4: 23.5%  2.2%  1.0%  0.0%  0.0%    skip:33.6%
[libx264 @ 0x375a120] mb B  I16..4:  1.1%  1.8%  0.1%  B16..8: 30.3%  2.0%  0.3%  direct: 0.8%  skip:63.7%  L0:40.9% L1:56.7% BI: 2.5%
[libx264 @ 0x375a120] final ratefactor: 28.75
[libx264 @ 0x375a120] 8x8 transform intra:41.0% inter:89.8%
[libx264 @ 0x375a120] direct mvs  spatial:98.7% temporal:1.3%
[libx264 @ 0x375a120] coded y,uvDC,uvAC intra: 10.8% 22.9% 1.3% inter: 4.1% 5.1% 0.0%
[libx264 @ 0x375a120] i16 v,h,dc,p: 30% 29%  8% 33%
[libx264 @ 0x375a120] i8 v,h,dc,ddl,ddr,vr,hd,vl,hu: 14% 10% 42%  5%  6%  6%  7%  5%  6%
[libx264 @ 0x375a120] i4 v,h,dc,ddl,ddr,vr,hd,vl,hu: 14% 15%  8%  7% 14% 11% 16%  6%  9%
[libx264 @ 0x375a120] i8c dc,h,v,p: 78% 13%  7%  2%
[libx264 @ 0x375a120] Weighted P-Frames: Y:1.1% UV:0.7%
[libx264 @ 0x375a120] ref P L0: 65.4% 16.9% 10.2%  3.7%  2.8%  1.0%
[libx264 @ 0x375a120] ref B L0: 89.8%  7.1%  2.6%  0.5%
[libx264 @ 0x375a120] ref B L1: 97.8%  2.2%
[libx264 @ 0x375a120] kb/s:6936.13
